<svg width="300" height="200" xmlns="http://www.w3.org/2000/svg">
  <!-- Background -->
  <rect width="100%" height="100%" fill="#754AFF" /> <!-- Light Blue Sky -->

  <!-- Ground -->
  <rect y="150" width="100%" height="50" fill="#228B22" />

  <!-- Barn -->
  <rect x="60" y="100" width="80" height="50" fill="#B22222" />
  <polygon points="60,100 100,70 140,100" fill="#A52A2A" />
  <rect x="80" y="120" width="20" height="30" fill="#FFF" />
  <rect x="110" y="120" width="20" height="30" fill="#FFF" />

  <!-- Trees -->
  <circle cx="40" cy="130" r="20" fill="#228B22" />
  <rect x="30" y="150" width="20" height="30" fill="#8B4513" />

  <circle cx="160" cy="130" r="20" fill="#228B22" />
  <rect x="150" y="150" width="20" height="30" fill="#8B4513" />

  <!-- Farm Crops -->
  <rect x="100" y="140" width="10" height="10" fill="#FFD700" />
  <rect x="115" y="140" width="10" height="10" fill="#FFD700" />
  <rect x="130" y="140" width="10" height="10" fill="#FFD700" />

  <rect x="110" y="155" width="10" height="10" fill="#FFD700" />
  <rect x="125" y="155" width="10" height="10" fill="#FFD700" />

  <!-- Cows -->
  <rect x="200" y="130" width="30" height="20" fill="#FFFFFF" />
  <circle cx="210" cy="125" r="10" fill="#000000" />
  <circle cx="230" cy="125" r="10" fill="#000000" />
  <rect x="210" y="140" width="10" height="10" fill="#000000" />
  <rect x="230" y="140" width="10" height="10" fill="#000000" />

  <rect x="220" y="140" width="30" height="20" fill="#FFFFFF" />
  <circle cx="230" cy="135" r="10" fill="#000000" />
  <circle cx="250" cy="135" r="10" fill="#000000" />
  <rect x="230" y="150" width="10" height="10" fill="#000000" />
  <rect x="250" y="150" width="10" height="10" fill="#000000" />

  <!-- Centered Text -->
  <text x="50%" y="20" font-family="Arial" font-size="16" fill="#000" text-anchor="middle" dominant-baseline="middle">
    Aichara Farm
  </text>
</svg>
